<svg xmlns="http://www.w3.org/2000/svg" viewBox="0 0 1000 1414" font-family="Georgia,'Times New Roman',serif">
  <rect width="1000" height="1414" fill="#f6f2ea"/>
  <text x="500" y="340" font-size="70" font-weight="700" text-anchor="middle" fill="#c0392b">Plans for the year:</text>
  <!-- chili -->
  <g transform="translate(500,760) rotate(18)">
    <path d="M-30 -170 q40 -10 70 20 q10 10 4 26 q-16 -22 -50 -20 z" fill="#3d7a2f"/>
    <path d="M40 -128 q120 60 90 220 q-24 130 -150 150 q-70 10 -96 -34 q-14 -26 14 -34 q40 -8 78 -34 q70 -50 66 -150 q-2 -70 -60 -104 q26 -16 58 20 z" fill="#cf2f22"/>
    <path d="M40 -128 q120 60 90 220 q-24 130 -150 150 q40 -30 66 -100 q34 -96 -6 -196 q-16 -40 -50 -54 q26 -16 50 -20 z" fill="#e0513f" opacity=".7"/>
    <path d="M-70 40 q-30 40 -8 90" fill="none" stroke="#f6f2ea" stroke-width="10" stroke-linecap="round" opacity=".5"/>
  </g>
  <text x="500" y="1240" font-size="96" text-anchor="middle" fill="#cf2f22" font-family="'Segoe Script','Brush Script MT',cursive" font-style="italic">be Hot</text>
</svg>
